<svg preserveAspectRatio="none" width="100%" height="100%" overflow="visible" style="display: block;" viewBox="0 0 170 170" fill="none" xmlns="http://www.w3.org/2000/svg">
<g id="Injection">
<g id="Group">
<path id="Vector" opacity="0.5" d="M84.822 104.553L79.8133 99.5441" stroke="var(--stroke-0, #FFF7ED)" stroke-width="6" stroke-linecap="round"/>
<path id="Vector_2" opacity="0.5" d="M92.3351 97.0401L87.3264 92.0315" stroke="var(--stroke-0, #FFF7ED)" stroke-width="6" stroke-linecap="round"/>
<path id="Vector_3" opacity="0.5" d="M99.8481 89.5271L94.8395 84.5184" stroke="var(--stroke-0, #FFF7ED)" stroke-width="6" stroke-linecap="round"/>
<path id="Vector_4" opacity="0.5" d="M85 60.2083L108.382 83.5911" stroke="var(--stroke-0, #FFF7ED)" stroke-width="6" stroke-linecap="round"/>
</g>
<path id="Vector_5" d="M34.2014 135.139L54.77 114.57" stroke="var(--stroke-0, #FFF7ED)" stroke-width="6" stroke-linecap="round"/>
<path id="Vector_6" d="M122.387 46.9533L134.909 59.4749M122.387 46.9533L109.866 34.4316M122.387 46.9533L134.909 34.4316M104.857 29.4229C106.813 31.3789 109.866 34.4316 109.866 34.4316M139.918 64.4836C137.962 62.5276 134.909 59.4749 134.909 59.4749M134.909 59.4749L109.866 84.5183L78.0163 116.368C77.6258 116.758 76.9926 116.758 76.6021 116.368L72.3005 112.066M109.866 34.4316L84.8222 59.4749L52.973 91.3242C52.5824 91.7147 52.5824 92.3479 52.973 92.7384L57.2745 97.04M72.3005 112.066L69.3543 115.012C65.449 118.918 59.1174 118.918 55.2121 115.012L54.7702 114.57L54.3282 114.128C50.423 110.223 50.423 103.892 54.3282 99.9863L57.2745 97.04M72.3005 112.066L57.2745 97.04M134.909 34.4316L130.038 29.5604C129.948 29.4712 129.891 29.3553 129.874 29.2303C129.858 29.1204 129.992 29.0542 130.07 29.1326L140.208 39.2704C140.286 39.3488 140.22 39.4821 140.11 39.4669C139.985 39.4496 139.869 39.392 139.78 39.3028L134.909 34.4316Z" stroke="var(--stroke-0, #FFF7ED)" stroke-width="6" stroke-linecap="round"/>
<g id="Vector_7">
</g>
</g>
</svg>
