<svg preserveAspectRatio="none" width="100%" height="100%" overflow="visible" style="display: block;" viewBox="0 0 170 170" fill="none" xmlns="http://www.w3.org/2000/svg">
<g id="Checkup">
<path id="Vector" d="M63.75 30.1042V34.9583C63.75 36.844 63.75 37.7868 64.3358 38.3725C64.9216 38.9583 65.8644 38.9583 67.75 38.9583H102.25C104.136 38.9583 105.078 38.9583 105.664 38.3725C106.25 37.7868 106.25 36.844 106.25 34.9583V30.1042M63.75 30.1042V25.25C63.75 23.3644 63.75 22.4216 64.3358 21.8358C64.9216 21.25 65.8644 21.25 67.75 21.25H102.25C104.136 21.25 105.078 21.25 105.664 21.8358C106.25 22.4216 106.25 23.3644 106.25 25.25V30.1042M63.75 30.1042C54.647 30.1042 50.0955 30.1042 46.9196 32.4462C45.952 33.1597 45.0972 34.0145 44.3837 34.9821C42.0417 38.158 42.0417 42.7095 42.0417 51.8125V117.208C42.0417 128.522 42.0417 134.179 45.5564 137.694C49.0711 141.208 54.728 141.208 66.0417 141.208H103.958C115.272 141.208 120.929 141.208 124.444 137.694C127.958 134.179 127.958 128.522 127.958 117.208V51.8125C127.958 42.7095 127.958 38.158 125.616 34.9821C124.903 34.0145 124.048 33.1597 123.08 32.4462C119.904 30.1042 115.353 30.1042 106.25 30.1042" stroke="var(--stroke-0, #FFF7ED)" stroke-width="6"/>
<path id="Vector_2" opacity="0.5" d="M60.2084 95.1667H63.564C63.6744 95.1667 63.7718 95.0942 63.8035 94.9885L74.1935 60.3553C74.2389 60.2038 74.4574 60.2166 74.4849 60.3723L84.8776 119.265C84.9058 119.424 85.1316 119.432 85.1709 119.275L92.036 91.8144C92.0639 91.7031 92.1638 91.625 92.2786 91.625H109.792" stroke="var(--stroke-0, #FFF7ED)" stroke-width="6" stroke-linecap="round"/>
<g id="Vector_3">
</g>
</g>
</svg>
