<svg preserveAspectRatio="none" width="100%" height="100%" overflow="visible" style="display: block;" viewBox="0 0 170 170" fill="none" xmlns="http://www.w3.org/2000/svg">
<g id="Nurse">
<path id="Vector" opacity="0.5" d="M60.2083 109.792C53.125 109.792 38.9583 116.875 38.9583 134.583" stroke="var(--stroke-0, #FFF7ED)" stroke-width="6" stroke-linecap="round"/>
<path id="Vector_2" opacity="0.5" d="M109.792 109.792C116.875 109.792 131.042 116.875 131.042 134.583" stroke="var(--stroke-0, #FFF7ED)" stroke-width="6" stroke-linecap="round"/>
<path id="Vector_3" opacity="0.5" d="M81.4583 131.042L86.2879 125.246L99.1667 109.792M70.8333 109.792L86.2879 125.246" stroke="var(--stroke-0, #FFF7ED)" stroke-width="6" stroke-linecap="round"/>
<path id="Vector_4" opacity="0.5" d="M58.4375 122.188V132.813M53.125 127.5H63.75" stroke="var(--stroke-0, #FFF7ED)" stroke-width="6" stroke-linecap="round"/>
<path id="Vector_5" d="M66.4295 94.9568C68.0165 95.4329 69.6889 94.5324 70.165 92.9454C70.6411 91.3584 69.7406 89.6859 68.1536 89.2099L67.2916 92.0833L66.4295 94.9568ZM60.2082 38.9583L58.5441 36.4622C55.199 38.6923 52.2494 42.9694 50.1028 47.8428C47.9156 52.8083 46.38 58.7998 46.1428 64.8725C45.9058 70.9401 46.9612 77.2586 50.1479 82.7073C53.3724 88.2206 58.6561 92.6248 66.4295 94.9568L67.2916 92.0833L68.1536 89.2099C61.7603 87.2919 57.7471 83.8159 55.3271 79.6781C52.8693 75.4757 51.9325 70.3724 52.1382 65.1067C52.3437 59.846 53.6858 54.5927 55.5937 50.2614C57.5421 45.8379 59.905 42.7661 61.8723 41.4545L60.2082 38.9583Z" fill="var(--stroke-0, #FFF7ED)"/>
<path id="Vector_6" d="M103.57 94.9568C101.984 95.4329 100.311 94.5324 99.835 92.9454C99.3589 91.3584 100.259 89.6859 101.846 89.2099L102.708 92.0833L103.57 94.9568ZM109.792 38.9583L111.456 36.4622C114.801 38.6923 117.751 42.9694 119.897 47.8428C122.084 52.8083 123.62 58.7998 123.857 64.8725C124.094 70.9401 123.039 77.2586 119.852 82.7073C116.628 88.2206 111.344 92.6248 103.57 94.9568L102.708 92.0833L101.846 89.2099C108.24 87.2919 112.253 83.8159 114.673 79.6781C117.131 75.4757 118.067 70.3724 117.862 65.1067C117.656 59.846 116.314 54.5927 114.406 50.2614C112.458 45.8379 110.095 42.7661 108.128 41.4545L109.792 38.9583Z" fill="var(--stroke-0, #FFF7ED)"/>
<path id="Vector_7" d="M64.63 67.2917C64.0574 69.5361 63.75 71.9136 63.75 74.375C63.75 88.0671 73.2639 102.708 85 102.708C96.7361 102.708 106.25 88.0671 106.25 74.375C106.25 71.9136 105.943 69.5361 105.37 67.2917" stroke="var(--stroke-0, #FFF7ED)" stroke-width="6" stroke-linecap="round"/>
<path id="Vector_8" d="M92.0833 53.125C88.9692 56.2391 80.3788 64.8296 61.4967 66.8583" stroke="var(--stroke-0, #FFF7ED)" stroke-width="6" stroke-linecap="round"/>
<path id="Vector_9" d="M88.5417 60.2083C92.0833 63.75 95.625 67.2917 106.25 67.2917" stroke="var(--stroke-0, #FFF7ED)" stroke-width="6" stroke-linecap="round"/>
<path id="Vector_10" opacity="0.5" d="M113.183 26.5769C113.266 26.4334 113.217 26.2498 113.073 26.1678C104.522 21.2912 94.847 18.7252 85 18.7252C75.153 18.7252 65.4777 21.2912 56.927 26.1678C56.783 26.2498 56.7338 26.4334 56.8167 26.5769L68.4041 46.6469C68.4869 46.7904 68.6704 46.8394 68.8146 46.7578C73.7509 43.9676 79.3263 42.5 85 42.5C90.6737 42.5 96.2491 43.9676 101.185 46.7578C101.33 46.8394 101.513 46.7904 101.596 46.6469L113.183 26.5769Z" stroke="var(--stroke-0, #FFF7ED)" stroke-width="6"/>
<g id="Vector_11">
</g>
</g>
</svg>
