<?xml version="1.0" encoding="UTF-8"?>
<svg id="Layer_1" xmlns="http://www.w3.org/2000/svg" version="1.1" viewBox="0 0 257.7 274.9">
  <!-- Generator: Adobe Illustrator 29.7.1, SVG Export Plug-In . SVG Version: 2.1.1 Build 8)  -->
  <defs>
    <style>
      .st0 {
        fill: #1b1d2e;
      }

      .st1 {
        fill: #4a5cff;
      }

      .st2 {
        fill: #d1d3d4;
      }
    </style>
  </defs>
  <path class="st1" d="M212.2,215.3c3.7-6.3,7.4-12.7,11-19.1,0-.1.1-.2.2-.3.5-.8.8-1.8.9-2.7.2-1.5,0-3.1-.8-4.5-.1-.2-.2-.4-.4-.7-3-5.1-5.9-10.2-8.9-15.4-4.9-8.4-9.7-16.9-14.6-25.3-1.1-1.9-2.2-3.8-3.3-5.7-.1-.2-.2-.4-.3-.6-3-5.2-6-10.4-9-15.6-2.7-4.6-5.3-9.2-8-13.9,1.4-.8,2.9-1.7,4.4-2.4,1.9-1,3.8-1.9,5.7-2.8.8-.3,1.5-.7,2.3-1,0,0-.1,0-.2,0,.1,0,.3,0,.4-.2,0,0,.2,0,.3-.1.1,0,.3-.1.4-.2.4-.1.7-.3,1.1-.4,3.9-1.5,7.9-2.7,11.9-3.8,2-.5,4.1-1,6.2-1.4,1-.2,1.9-.4,2.9-.5.5,0,1-.2,1.6-.2.2,0,.4,0,.6,0,1.1-.2.1,0-.4,0,2.2-.5,4.7-.5,7-.7,2.4-.2,4.8-.2,7.2-.2,3.9,0,7.7-3.5,7.5-7.5-.2-4.1-3.3-7.5-7.5-7.5-18.2,0-36.2,4.4-52.4,12.5-2.1,1.1-4.2,2.2-6.2,3.4-.8-1.3-1.5-2.7-2.3-4-2.7-4.2-6.5-3.8-10.6-3.8-.2,0-.5,0-.7,0,0-15.7-3.2-31.2-9.2-45.7-1.8-4.5-4-8.8-6.4-13-2-3.4-6.8-5-10.2-2.8-3.4,2.2-4.9,6.6-2.8,10.2,2.1,3.6,4,7.3,5.6,11.2.2.4.3.7.5,1.1,0,0,0,.2,0,.2.4,1,.8,2.1,1.2,3.1.7,1.9,1.3,3.9,1.9,5.8,1.2,4,2.2,8,2.9,12.1.2,1,.3,2,.5,2.9,0,.3,0,.5.1.8,0,0,0,.1,0,.2,0,.3,0,.6.1.9.2,2,.4,4.1.5,6.1.1,2.3.2,4.5.2,6.8-4,0-8.1,0-12.1,0-7.3,0-14.7,0-22,0-.1,0-.3,0-.4,0-5.4,0-10.8,0-16.2,0-9.3,0-18.5,0-27.8,0-2.9,0-5.9,0-8.8,0-.5,0-.9,0-1.4,0-3.1,0-5.4,1.9-6.8,4.4-3.5,6-7,12.1-10.4,18.1s-8.8,15.3-13.3,23c-1,1.7-2,3.4-2.9,5.1-1.4,2.6-1.3,5.4.1,7.9.4.7.9,1.5,1.3,2.2,4.1,7,8.1,14.1,12.2,21.1,4,7,8.1,13.9,12.1,20.9.4.7.8,1.4,1.2,2,1.5,2.5,4,4,7,4.1,2.8,0,5.7,0,8.5,0h20.9c.7,3.7,1.4,7.4,2.1,11.1.5,2.4.9,4.9,1.4,7.3.7,3.8,5.6,6.6,9.2,5.3,5.9-2.1,11.8-4.1,17.6-6.2,4.2,7.3,8.4,14.5,12.6,21.8.7,1.3,1.5,2.6,2.2,3.8,1.3,2.3,3.9,3.8,6.6,3.8,6.2,0,12.3,0,18.5,0,9.8,0,19.5,0,29.3,0,2.1,0,4.3,0,6.4,0,4.9-.2,6.5-3.7,8.5-7.2,4.6-8,9.3-16.1,13.9-24.1ZM109.4,168.7c10.9,7.9,23.4,13.7,36.4,17.4,2.3.6,4.6,1.2,6.9,1.7-5.9,2.1-11.8,4.2-17.8,6.2-.7.2-1.3.5-2,.7-2.8-.9-5.6-1.9-8.3-2.9-8.5-3.6-16.4-8.2-23.8-13.7-2.3-1.8-4.6-3.7-6.7-5.8-1.3-6.9-2.6-13.8-3.9-20.7,5.7,6.4,12.1,12.1,19.1,17.1ZM126.9,105.8c7.6,0,15.3,0,22.9,0,.2,0,.3,0,.5,0,2,0,3.9,0,5.9,0,.8,0,1.5,0,2.3,0,1.3,2.2,2.6,4.4,3.8,6.6,0,.1.1.2.2.3,1,1.7,2,3.4,2.9,5.1,4.9,8.4,9.7,16.9,14.6,25.3.4.7.8,1.4,1.2,2.1-1.7,2.9-3.4,5.9-5.1,8.8l-1.9,3.2c-3.2,5.6-6.5,11.2-9.7,16.8l-.3.5c0,0-.1,0-.2,0-8.8-1.2-17.4-3.5-25.7-6.8-8.4-3.6-16.3-8.1-23.6-13.6-7-5.5-13.3-11.8-18.7-18.9,0,0,0,0,0-.1l1.2-2,3.7-6.4c3.6-6.3,7.3-12.6,10.9-18.9l.7-1.2.5-.9c4.7,0,9.3,0,14,0ZM58.8,184.6s0,0,0,0c-2.3-4-4.6-8-6.9-12-4.9-8.4-9.7-16.9-14.6-25.3-.4-.7-.8-1.4-1.2-2.1,2.3-4,4.6-8,7-12.1,4.9-8.4,9.7-16.9,14.6-25.3.4-.7.8-1.4,1.2-2,4.7,0,9.3,0,14,0,7.6,0,15.3,0,22.9,0l-.8,1.3-1.1,1.9c-3.5,6.1-7,12.1-10.5,18.2-.9,1.5-1.8,3.1-2.7,4.6-1.8,3.2-3.8,6.3-5.5,9.5,0,0,0,.1,0,.2,0,0,0,.1-.1.2,0,0,0,0,0,.1,0,0,0,.2-.1.3,0,0,0,0,0,0-.7,1.6-.8,3.2-.5,5,.1.7.3,1.4.4,2.1.3,1.4.5,2.8.8,4.1.9,4.9,1.8,9.8,2.7,14.6.6,3.3,1.1,6.6,1.8,9.8,0,0,0,0,0,0,0,0,0,.1,0,.2,0,0,0,0,0,0,.4,2.2.8,4.4,1.2,6.6-7.5,0-15,0-22.5,0ZM98.3,194.6c1.1.8,2.3,1.5,3.4,2.2,3.2,2,6.5,3.8,9.8,5.4-3.7,1.3-7.4,2.6-11.1,3.9-.7-3.9-1.4-7.7-2.2-11.6ZM142.3,231.6c-.8,0-1.5,0-2.3,0-3.8-6.5-7.5-13-11.3-19.5,2.2-.8,4.3-1.5,6.5-2.3,0,0,.1,0,.2,0,.4-.1.7-.2,1.1-.4,6.4-2.2,12.8-4.5,19.2-6.7,3-1,6-2.1,8.9-3.1,1.9-.7,3.3-1.6,4.5-3.2,0,0,0,0,0-.1,0,0,0,0,0-.1,0,0,0-.1.1-.2,1.1-1.8,2.1-3.6,3.1-5.4s1.1-1.9,1.6-2.8l.8-1.3c2.4-4.2,4.8-8.4,7.3-12.6,1.4-2.4,2.7-4.7,4.1-7.1,1.2-2.1,2.4-4.2,3.7-6.3.9,1.5,1.7,3,2.6,4.5,4.9,8.4,9.7,16.9,14.6,25.3.4.7.8,1.4,1.2,2.1-2.3,4-4.6,8-7,12.1-4.9,8.4-9.7,16.9-14.6,25.3-.4.7-.8,1.4-1.2,2-4.7,0-9.3,0-14,0-9.7,0-19.5,0-29.2,0Z"/>
  <path class="st0" d="M150,121.4c0,0-.1,0-.2,0,1.1-.4,1.1-.4.9-.4-.1,0-.3,0-.4.1-.1,0-.2,0-.4.1Z"/>
  <g>
    <path class="st2" d="M622,4156.5c14.7-25.4,29.7-50.6,44-76.2.2-.4.5-.9.8-1.3,1.9-3.3,3.1-7.1,3.6-10.9.9-6,0-12.3-3.1-18.2-.4-.9-.9-1.8-1.5-2.6-11.8-20.5-23.6-41-35.5-61.4-19.5-33.8-39-67.6-58.5-101.3-4.4-7.6-8.7-15.1-13.1-22.7-.4-.8-.8-1.5-1.3-2.3-12-20.8-24-41.5-35.9-62.3-10.7-18.5-21.4-37-32-55.5,5.8-3.4,11.6-6.6,17.5-9.7,7.5-3.9,15.1-7.6,22.9-11.1,3-1.4,6.1-2.7,9.1-4-.3.1-.6.2-.9.3.5-.2,1-.4,1.5-.6.4-.2.8-.3,1.2-.5.6-.2,1.3-.5,1.8-.7,1.5-.6,2.9-1.1,4.4-1.7,15.5-5.9,31.4-10.9,47.5-15,8.2-2.1,16.4-3.9,24.7-5.5,3.9-.8,7.8-1.5,11.7-2.1,2.1-.3,4.2-.7,6.3-1,.8-.1,1.6-.2,2.4-.3,4.3-.6.6-.3-1.5.1,8.9-2,18.8-2.1,27.8-2.7,9.5-.6,19.1-.9,28.6-1,15.7,0,30.6-14,29.8-30.2-.8-16.3-13.4-29.9-30.2-29.8-72.7.2-144.7,17.6-209.7,50-8.4,4.2-16.7,8.7-24.9,13.4-3-5.4-6-10.8-9.3-16-10.7-16.8-25.8-15.3-42.2-15.3-.9,0-1.9,0-2.8,0,.2-62.7-12.8-124.9-36.8-182.9-7.4-17.9-15.9-35.2-25.5-52-7.8-13.6-27.2-19.8-40.9-11.2-13.7,8.6-19.5,26.4-11.2,40.9,8.3,14.5,15.8,29.4,22.5,44.7.6,1.5,1.2,2.9,1.9,4.4.1.3.3.7.4,1,1.7,4.2,3.2,8.4,4.8,12.6,2.8,7.7,5.3,15.5,7.7,23.3,4.8,15.9,8.6,32.1,11.5,48.5.7,3.9,1.3,7.8,1.9,11.7.2,1,.3,2.1.5,3.1,0,.3,0,.5,0,.6.1,1.2.3,2.4.4,3.5.9,8.1,1.7,16.3,2.1,24.5.5,9.1.8,18.1.7,27.2-16.2,0-32.4,0-48.6,0-29.3,0-58.7-.4-88,0-.5,0-1,0-1.5,0-21.6,0-43.1,0-64.6,0-37.1,0-74.2,0-111.3,0-11.7,0-23.4,0-35.2,0-1.9,0-3.8,0-5.7,0-12.3.4-21.6,7.6-27.4,17.7-13.9,24.1-27.8,48.2-41.8,72.3-17.7,30.7-35.4,61.3-53.1,92-3.9,6.8-8.1,13.5-11.8,20.4-5.4,10.3-5,21.6.6,31.7,1.7,3,3.4,5.9,5.1,8.9,16.2,28.1,32.5,56.2,48.7,84.4,16.1,27.9,32.2,55.8,48.3,83.7,1.6,2.7,3.1,5.5,4.7,8.2,6.1,10.2,16,16,27.9,16.3,11.3.3,22.7,0,34,0,27.9,0,55.7,0,83.6,0,2.8,14.8,5.5,29.5,8.3,44.3,1.8,9.8,3.7,19.5,5.5,29.3,2.8,15.1,22.3,26.3,36.7,21.2,23.5-8.3,47.1-16.6,70.6-24.9,16.8,29.1,33.6,58.2,50.4,87.3,3,5.1,5.9,10.3,8.9,15.4,5.4,9.3,15.4,15.1,26.2,15.1,24.7,0,49.3,0,74,0,39,0,78.1,0,117.1,0,8.5,0,17,.4,25.5,0,19.6-.9,25.9-14.8,34-28.8,18.6-32.2,37.1-64.3,55.7-96.5ZM210.6,3970.3c43.8,31.4,93.7,55,145.6,69.5,9.1,2.5,18.3,4.7,27.5,6.7-23.7,8.3-47.3,16.7-71,25-2.6.9-5.2,1.8-7.8,2.8-11.3-3.5-22.4-7.4-33.4-11.8-33.8-14.3-65.8-32.8-95.1-54.9-9.3-7.3-18.2-15-26.9-23-5.2-27.6-10.3-55.1-15.5-82.7,22.9,25.4,48.4,48.3,76.6,68.5ZM280.4,3718.4c30.6,0,61.2,0,91.8,0,.6,0,1.2,0,1.8,0,7.8,0,15.6,0,23.4,0,3.1,0,6.2,0,9.2,0,5.1,8.9,10.2,17.7,15.4,26.6.2.4.5.8.7,1.2,3.9,6.8,7.8,13.6,11.7,20.3,19.5,33.8,39,67.6,58.5,101.3,1.6,2.8,3.2,5.5,4.8,8.3-6.8,11.8-13.6,23.6-20.4,35.3-2.5,4.3-5,8.6-7.5,12.9-13,22.4-25.9,44.9-38.9,67.3l-1.1,1.9c-.2,0-.4,0-.7,0-35.2-4.8-69.7-14-102.8-27.1-33.6-14.3-65.4-32.6-94.5-54.6-27.9-22-53.1-47.4-74.9-75.5-.1-.2-.3-.4-.4-.5,1.5-2.7,3.1-5.3,4.6-8,4.9-8.6,9.9-17.1,14.8-25.7,14.6-25.2,29.1-50.4,43.7-75.6l2.7-4.6c.7-1.2,1.3-2.3,2-3.5,18.6,0,37.3,0,55.9,0ZM8,4033.9c0,0-.2,0-.3,0-9.3-16-18.5-32.1-27.8-48.1-19.5-33.8-39-67.6-58.5-101.3-1.6-2.8-3.2-5.5-4.8-8.3,9.3-16.1,18.6-32.2,27.9-48.3,19.5-33.8,39-67.6,58.5-101.3,1.6-2.7,3.1-5.4,4.7-8.1,18.6,0,37.3,0,55.9,0,30.5,0,61.1,0,91.6,0-1,1.8-2.1,3.6-3.1,5.3-1.5,2.6-2.9,5.1-4.4,7.7-14,24.2-27.9,48.4-41.9,72.6-3.6,6.2-7.1,12.3-10.7,18.5-7.3,12.7-15.1,25.2-22,38.2-.1.2-.2.4-.3.6-.1.3-.3.5-.4.8,0,.2-.1.3-.2.4-.2.3-.3.7-.5,1,0,0,0,.1,0,.2-2.7,6.5-3.1,12.9-1.8,20.2.5,2.8,1,5.5,1.6,8.3,1,5.5,2.1,11,3.1,16.6,3.7,19.5,7.3,39,11,58.5,2.4,13,4.4,26.2,7.3,39.1,0,0,0,0,0,0,0,.3.1.6.2.9,0,0,0,0,0,0,1.7,8.8,3.3,17.6,5,26.5-30,0-59.9,0-89.9,0ZM166.2,4073.7c4.5,3,9.1,6,13.7,8.9,12.7,7.9,25.9,15.2,39.3,21.8-14.8,5.2-29.6,10.4-44.3,15.6-2.9-15.4-5.8-30.8-8.7-46.3ZM342.1,4221.7c-3.1,0-6.2,0-9.2,0-15-26-30.1-52.1-45.1-78.1,8.7-3.1,17.4-6.1,26.1-9.2.2,0,.5-.2.7-.3,1.4-.5,2.8-1,4.2-1.5,25.6-9,51.1-18,76.7-27,11.9-4.2,23.8-8.2,35.7-12.6,7.5-2.7,13.3-6.4,17.8-12.8.1-.2.3-.4.4-.5,0-.1.2-.3.3-.4.2-.3.4-.6.6-.9,4.3-7.1,8.4-14.5,12.5-21.7,2.1-3.7,4.3-7.4,6.4-11.2,1-1.8,2-3.5,3-5.3,9.7-16.8,19.4-33.6,29.1-50.3,5.5-9.5,10.9-18.9,16.4-28.4,4.9-8.4,9.8-16.8,14.7-25.2,3.5,6,6.9,12,10.4,18,19.5,33.8,39,67.6,58.5,101.3,1.6,2.8,3.2,5.5,4.8,8.3-9.3,16.1-18.6,32.2-27.9,48.3-19.5,33.8-39,67.6-58.5,101.3-1.6,2.7-3.1,5.4-4.7,8.1-18.6,0-37.3,0-55.9,0-39,0-78,0-117,0Z"/>
    <path class="st2" d="M539.5,3716.7c-.2,0-.4.2-.6.3,4.4-1.6,4.5-1.8,3.6-1.4-.5.2-1,.4-1.5.6-.5.2-.9.4-1.4.6Z"/>
    <g>
      <path class="st2" d="M-1268.5,4904.5h-1.3v55h-75v-517.5h76.3v216.7c29.8-47.2,73.1-69.2,122.9-69.2,97,0,159.1,83.4,159.1,189.5s-76.3,191.5-164.3,191.5-95.7-27.8-117.7-66ZM-1167,4898c58.9,0,100.9-49.8,100.9-117.7s-42-118.4-101.6-118.4-102.2,49.8-102.2,118.4,44.6,117.7,102.8,117.7Z"/>
      <path class="st2" d="M-938,4780.9c0-110.6,74.4-191.5,179.2-191.5s170.8,52.4,170.8,188.2v22.6h-272.3c5.8,64,50.5,101.6,106.7,101.6s79.6-26.5,96.4-67.9l71.8,28.5c-24.6,63.4-86.7,108-168.2,108s-184.3-75-184.3-189.5ZM-665.7,4745.4c-5.2-65.3-49.2-89.9-93.8-89.9s-88,36.9-97,89.9h190.8Z"/>
      <path class="st2" d="M-537.6,4780.9c0-110.6,74.4-191.5,179.2-191.5s170.8,52.4,170.8,188.2v22.6h-272.3c5.8,64,50.5,101.6,106.7,101.6s79.6-26.5,96.4-67.9l71.8,28.5c-24.6,63.4-86.7,108-168.2,108s-184.3-75-184.3-189.5ZM-265.3,4745.4c-5.2-65.3-49.2-89.9-93.8-89.9s-88,36.9-97,89.9h190.8Z"/>
    </g>
    <g>
      <path class="st2" d="M-103.6,4442h43.3v229h1.3c28.5-55.6,73.7-78.9,124.2-78.9s130.7,35.6,130.7,143.6v223.8h-43.3v-204.4c0-89.3-45.9-122.9-98.3-122.9s-114.5,65.3-114.5,128.1v199.2h-43.3v-517.5Z"/>
      <path class="st2" d="M278,4781.6c0-111.3,73.1-189.5,175.3-189.5s163,36.2,163,179.2v20.1h-291.7c1.9,86,56.3,139.1,131.3,139.1s104.1-40.1,124.2-89.9l41.4,14.9c-27.2,73.1-90.6,115.1-167.5,115.1s-175.9-75.7-175.9-188.9ZM569.1,4747.3c-1.9-84.7-62.7-113.8-117.1-113.8s-115.1,47.2-124.8,113.8h241.9Z"/>
      <path class="st2" d="M679.1,4877.3c0-67.3,60.8-95.1,128.7-109.3,66-13.6,113.2-14.9,113.2-60.8s-35.6-77.6-90.6-77.6-82.8,29.1-97,75l-42-14.9c21.3-68.6,82.8-97.7,142.3-97.7s132.6,34.3,132.6,119v136.5c0,59.5,4.5,84.1,11.6,111.9h-44c-6.5-25.2-8.4-46.6-8.4-74.4h-1.3c-22.6,48.5-66.6,85.4-132,85.4s-113.2-30.4-113.2-93.1ZM800,4934.9c75,0,121.6-70.5,121.6-118.4v-48.5c-20.1,15.5-36.9,21.3-84.7,30.4-41.4,7.8-110.6,22.6-110.6,77s28.5,59.5,73.7,59.5Z"/>
      <path class="st2" d="M1076.9,4442h43.3v517.5h-43.3v-517.5Z"/>
      <path class="st2" d="M1256.7,4852.1v-210.9h-71.2v-38.8h71.2v-106.1h43.3v106.1h109.3v38.8h-109.3v198.6c0,40.1,0,91.2,51.1,91.2s36.2-5.2,58.2-19.4v41.4c-18.1,11.6-42.7,17.5-65.3,17.5-87.3,0-87.3-76.3-87.3-118.4Z"/>
      <path class="st2" d="M1482.4,4442h43.3v229h1.3c28.5-55.6,73.7-78.9,124.2-78.9s130.7,35.6,130.7,143.6v223.8h-43.3v-204.4c0-89.3-45.9-122.9-98.3-122.9s-114.5,65.3-114.5,128.1v199.2h-43.3v-517.5Z"/>
    </g>
  </g>
</svg>